<svg
 xmlns="http://www.w3.org/2000/svg"
 xmlns:xlink="http://www.w3.org/1999/xlink"
 width="1.235cm" height="1.729cm">
<path fill-rule="evenodd"  fill="rgb(234, 176, 0)"
 d="M34.350,35.036 L26.116,48.812 L12.510,40.299 C11.810,39.861 11.586,38.932 12.010,38.222 C12.434,37.513 13.345,37.294 14.045,37.732 L25.115,44.658 L31.814,33.450 C32.238,32.741 33.149,32.521 33.849,32.959 C34.200,33.179 34.431,33.520 34.521,33.896 C34.612,34.272 34.562,34.682 34.350,35.036 ZM24.243,42.871 C23.433,42.743 22.872,41.971 22.993,41.147 C23.031,40.892 26.409,15.377 0.915,3.120 C0.174,2.764 -0.150,1.866 0.194,1.110 C0.538,0.357 1.419,0.037 2.162,0.394 C16.952,7.504 22.717,18.822 24.881,27.801 C26.738,35.504 25.943,41.485 25.925,41.614 C25.806,42.438 25.052,43.001 24.243,42.871 Z"/>
</svg>
